<?xml version="1.0" encoding="UTF-8"?>
<!DOCTYPE svg PUBLIC "-//W3C//DTD SVG 1.1//EN" "http://www.w3.org/Graphics/SVG/1.1/DTD/svg11.dtd">
<svg xmlns="http://www.w3.org/2000/svg" version="1.1" width="2562px" height="972px" style="shape-rendering:geometricPrecision; text-rendering:geometricPrecision; image-rendering:optimizeQuality; fill-rule:evenodd; clip-rule:evenodd" xmlns:xlink="http://www.w3.org/1999/xlink">
<g><path style="opacity:0.993" fill="#fefffe" d="M 994.5,170.5 C 1063.22,168.808 1127.89,183.975 1188.5,216C 1198.56,222.058 1208.06,228.892 1217,236.5C 1217.5,278.499 1217.67,320.499 1217.5,362.5C 1172.5,362.5 1127.5,362.5 1082.5,362.5C 1083.93,308.937 1057.93,281.27 1004.5,279.5C 982.595,279.524 962.928,286.024 945.5,299C 923.859,321.017 920.026,345.851 934,373.5C 942.193,384.351 952.693,392.184 965.5,397C 1019.04,411.801 1072.7,426.134 1126.5,440C 1162.09,448.3 1194.42,463.3 1223.5,485C 1253.4,511.321 1269.57,544.487 1272,584.5C 1279.51,669.677 1245.35,731.177 1169.5,769C 1117.81,791.116 1063.81,801.282 1007.5,799.5C 969.27,800.344 931.603,796.177 894.5,787C 892.01,786.505 890.51,785.005 890,782.5C 872.358,737.237 854.525,692.071 836.5,647C 872.644,659.286 909.644,668.62 947.5,675C 979.782,680.448 1012.12,681.115 1044.5,677C 1063.88,674.233 1079.72,665.399 1092,650.5C 1100.92,634.413 1102.92,617.413 1098,599.5C 1092.59,585.088 1082.76,574.922 1068.5,569C 1060.72,565.72 1052.72,563.053 1044.5,561C 987.37,546.468 930.37,531.468 873.5,516C 780.611,484.432 741.778,419.932 757,322.5C 768.021,273.602 794.855,236.102 837.5,210C 870.472,191.343 905.805,179.676 943.5,175C 960.602,172.881 977.602,171.381 994.5,170.5 Z"/></g>
<g><path style="opacity:0.994" fill="#fefffe" d="M 407.5,185.5 C 475.167,185.5 542.833,185.5 610.5,185.5C 688.765,385.289 767.432,584.956 846.5,784.5C 783.5,785.833 720.5,785.833 657.5,784.5C 604.896,630.687 552.896,476.687 501.5,322.5C 500.5,322.5 499.5,322.5 498.5,322.5C 472.833,397.167 447.167,471.833 421.5,546.5C 458.506,546.167 495.506,546.5 532.5,547.5C 546.833,589.5 561.167,631.5 575.5,673.5C 509.169,674.333 442.836,674.833 376.5,675C 363.334,711.665 350.667,748.498 338.5,785.5C 282.496,785.833 226.496,785.5 170.5,784.5C 249.312,584.725 328.312,385.059 407.5,185.5 Z"/></g>
<g><path style="opacity:0.973" fill="#fefffe" d="M 2244.5,285.5 C 2267.9,282.741 2289.23,287.908 2308.5,301C 2323.25,315.337 2331.42,332.837 2333,353.5C 2338.41,427.429 2304.58,459.263 2231.5,449C 2205.85,441.345 2189.68,424.512 2183,398.5C 2176.68,371.344 2179.02,345.01 2190,319.5C 2202.54,299.145 2220.71,287.812 2244.5,285.5 Z M 2252.5,314.5 C 2278.44,314.603 2292.94,327.603 2296,353.5C 2297.11,366.945 2296.44,380.278 2294,393.5C 2288.64,412.358 2276.14,422.025 2256.5,422.5C 2238.2,421.691 2226.03,412.691 2220,395.5C 2215.79,378.912 2215.46,362.245 2219,345.5C 2223.08,327.25 2234.24,316.916 2252.5,314.5 Z"/></g>
<g><path style="opacity:0.971" fill="#fefffe" d="M 1460.5,287.5 C 1475.08,287.176 1489.58,287.51 1504,288.5C 1522.55,341.94 1541.39,395.274 1560.5,448.5C 1547.83,449.833 1535.17,449.833 1522.5,448.5C 1518.63,436.213 1514.96,423.88 1511.5,411.5C 1492.16,411.333 1472.83,411.5 1453.5,412C 1449.33,424.349 1445.66,436.849 1442.5,449.5C 1429.83,449.5 1417.17,449.5 1404.5,449.5C 1422.97,395.437 1441.63,341.437 1460.5,287.5 Z M 1481.5,316.5 C 1482.12,316.611 1482.62,316.944 1483,317.5C 1489.2,338.596 1495.7,359.596 1502.5,380.5C 1489.17,381.833 1475.83,381.833 1462.5,380.5C 1469.46,359.336 1475.79,338.002 1481.5,316.5 Z"/></g>
<g><path style="opacity:0.974" fill="#fefffe" d="M 1588.5,287.5 C 1605.84,287.333 1623.17,287.5 1640.5,288C 1656.73,287.577 1671.73,291.577 1685.5,300C 1696.14,309.576 1701.14,321.576 1700.5,336C 1699.72,356.389 1690.05,370.889 1671.5,379.5C 1686.83,402.5 1702.17,425.5 1717.5,448.5C 1704.5,449.833 1691.5,449.833 1678.5,448.5C 1666.03,428.2 1653.36,408.033 1640.5,388C 1634.84,387.501 1629.18,387.334 1623.5,387.5C 1623.5,408.167 1623.5,428.833 1623.5,449.5C 1611.83,449.5 1600.17,449.5 1588.5,449.5C 1588.5,395.5 1588.5,341.5 1588.5,287.5 Z M 1623.5,316.5 C 1634.82,315.924 1645.82,317.424 1656.5,321C 1665.15,328.107 1667.32,336.941 1663,347.5C 1659.49,353.348 1654.32,356.848 1647.5,358C 1639.55,359.223 1631.55,359.723 1623.5,359.5C 1623.5,345.167 1623.5,330.833 1623.5,316.5 Z"/></g>
<g><path style="opacity:0.966" fill="#fefffe" d="M 1725.5,287.5 C 1737.5,287.5 1749.5,287.5 1761.5,287.5C 1774.77,329.307 1787.44,371.307 1799.5,413.5C 1801.84,403.801 1804.34,394.135 1807,384.5C 1817.48,352.24 1827.64,319.907 1837.5,287.5C 1849.52,287.168 1861.52,287.501 1873.5,288.5C 1855.04,341.722 1836.87,395.055 1819,448.5C 1812.58,449.157 1806.08,449.491 1799.5,449.5C 1792.92,449.491 1786.42,449.157 1780,448.5C 1761.92,394.773 1743.76,341.106 1725.5,287.5 Z"/></g>
<g><path style="opacity:0.971" fill="#fefffe" d="M 1937.5,287.5 C 1952.08,287.176 1966.58,287.51 1981,288.5C 1999.55,341.94 2018.39,395.274 2037.5,448.5C 2024.83,449.833 2012.17,449.833 1999.5,448.5C 1995.63,436.213 1991.96,423.88 1988.5,411.5C 1969.16,411.333 1949.83,411.5 1930.5,412C 1926.33,424.349 1922.66,436.849 1919.5,449.5C 1906.83,449.5 1894.17,449.5 1881.5,449.5C 1899.97,395.437 1918.63,341.437 1937.5,287.5 Z M 1958.5,316.5 C 1959.12,316.611 1959.62,316.944 1960,317.5C 1966.2,338.596 1972.7,359.596 1979.5,380.5C 1966.17,381.833 1952.83,381.833 1939.5,380.5C 1946.46,359.336 1952.79,338.002 1958.5,316.5 Z"/></g>
<g><path style="opacity:0.97" fill="#fefffe" d="M 2040.5,287.5 C 2081.5,287.5 2122.5,287.5 2163.5,287.5C 2163.5,297.5 2163.5,307.5 2163.5,317.5C 2148.83,317.5 2134.17,317.5 2119.5,317.5C 2119.5,361.5 2119.5,405.5 2119.5,449.5C 2107.83,449.5 2096.17,449.5 2084.5,449.5C 2084.5,405.5 2084.5,361.5 2084.5,317.5C 2069.83,317.5 2055.17,317.5 2040.5,317.5C 2040.5,307.5 2040.5,297.5 2040.5,287.5 Z"/></g>
<g><path style="opacity:0.968" fill="#fefffe" d="M 1448.5,519.5 C 1470.53,517.279 1491.2,521.279 1510.5,531.5C 1506.96,540.073 1503.3,548.573 1499.5,557C 1491.26,554.705 1482.93,552.371 1474.5,550C 1466.82,548.1 1459.15,548.1 1451.5,550C 1442.01,555.098 1439.51,562.598 1444,572.5C 1445.5,574 1447,575.5 1448.5,577C 1461.17,583.667 1473.83,590.333 1486.5,597C 1509.28,610.998 1516.45,630.831 1508,656.5C 1501.79,669.71 1491.62,678.21 1477.5,682C 1453.16,687.851 1429.49,685.851 1406.5,676C 1405.35,664.91 1405.18,653.743 1406,642.5C 1421.03,650.398 1437.03,655.064 1454,656.5C 1459.85,656.221 1465.35,654.721 1470.5,652C 1476.97,646.135 1478.14,639.302 1474,631.5C 1463.87,622.513 1452.37,615.68 1439.5,611C 1407.98,594.762 1399.81,570.596 1415,538.5C 1423.74,527.88 1434.91,521.547 1448.5,519.5 Z"/></g>
<g><path style="opacity:0.968" fill="#fefffe" d="M 1713.5,519.5 C 1734.48,517.497 1754.48,520.997 1773.5,530C 1774.02,530.561 1774.36,531.228 1774.5,532C 1770.86,540.417 1767.53,548.917 1764.5,557.5C 1756.17,555.114 1747.84,552.614 1739.5,550C 1730.19,547.403 1721.19,548.069 1712.5,552C 1703.97,559.703 1703.64,567.703 1711.5,576C 1725.01,583.588 1738.67,590.921 1752.5,598C 1772.23,610.651 1779.4,628.484 1774,651.5C 1769.35,664.824 1760.51,674.324 1747.5,680C 1721.35,688.09 1695.69,686.756 1670.5,676C 1669.35,664.91 1669.18,653.743 1670,642.5C 1685.16,649.997 1701.16,654.663 1718,656.5C 1724.76,656.494 1730.93,654.66 1736.5,651C 1742.85,643.96 1743.02,636.793 1737,629.5C 1724.89,621.193 1712.06,614.026 1698.5,608C 1670.57,590.262 1664.4,566.762 1680,537.5C 1689.01,527.288 1700.18,521.288 1713.5,519.5 Z"/></g>
<g><path style="opacity:0.968" fill="#fefffe" d="M 2328.5,519.5 C 2349.48,517.497 2369.48,520.997 2388.5,530C 2388.96,530.414 2389.29,530.914 2389.5,531.5C 2385.59,539.977 2382.26,548.643 2379.5,557.5C 2369.34,554.169 2359,551.336 2348.5,549C 2339.97,547.326 2332.14,548.826 2325,553.5C 2318.69,561.432 2319.19,568.932 2326.5,576C 2338.18,582.843 2350.18,589.176 2362.5,595C 2386.72,607.969 2395.22,627.802 2388,654.5C 2382.83,666.333 2374.33,674.833 2362.5,680C 2336.35,688.168 2310.68,686.834 2285.5,676C 2284.35,664.91 2284.18,653.743 2285,642.5C 2300.11,650.113 2316.11,654.779 2333,656.5C 2339.7,656.285 2345.87,654.451 2351.5,651C 2356.81,643.799 2356.81,636.633 2351.5,629.5C 2348.59,626.423 2345.26,623.923 2341.5,622C 2329.18,616.176 2317.18,609.843 2305.5,603C 2284.81,584.542 2280.98,563.042 2294,538.5C 2303.06,527.556 2314.56,521.223 2328.5,519.5 Z"/></g>
<g><path style="opacity:0.967" fill="#fefffe" d="M 1519.5,521.5 C 1532.18,521.168 1544.85,521.501 1557.5,522.5C 1568.08,543.989 1578.91,565.323 1590,586.5C 1600.71,564.922 1611.54,543.422 1622.5,522C 1635.18,521.167 1647.85,521.334 1660.5,522.5C 1643,554.833 1625.5,587.167 1608,619.5C 1607.5,640.831 1607.33,662.164 1607.5,683.5C 1595.83,683.5 1584.17,683.5 1572.5,683.5C 1572.67,662.831 1572.5,642.164 1572,621.5C 1554.2,588.228 1536.7,554.895 1519.5,521.5 Z"/></g>
<g><path style="opacity:0.976" fill="#fefffe" d="M 1787.5,521.5 C 1828.5,521.5 1869.5,521.5 1910.5,521.5C 1910.5,531.167 1910.5,540.833 1910.5,550.5C 1895.83,550.5 1881.17,550.5 1866.5,550.5C 1866.5,594.833 1866.5,639.167 1866.5,683.5C 1854.83,683.5 1843.17,683.5 1831.5,683.5C 1831.5,639.167 1831.5,594.833 1831.5,550.5C 1816.83,550.5 1802.17,550.5 1787.5,550.5C 1787.5,540.833 1787.5,531.167 1787.5,521.5 Z"/></g>
<g><path style="opacity:0.965" fill="#fefffe" d="M 1933.5,521.5 C 1964.83,521.5 1996.17,521.5 2027.5,521.5C 2027.5,531.167 2027.5,540.833 2027.5,550.5C 2007.83,550.5 1988.17,550.5 1968.5,550.5C 1968.5,561.833 1968.5,573.167 1968.5,584.5C 1986.83,584.5 2005.17,584.5 2023.5,584.5C 2023.5,594.167 2023.5,603.833 2023.5,613.5C 2005.17,613.5 1986.83,613.5 1968.5,613.5C 1968.5,626.833 1968.5,640.167 1968.5,653.5C 1988.17,653.5 2007.83,653.5 2027.5,653.5C 2027.5,663.5 2027.5,673.5 2027.5,683.5C 1996.17,683.5 1964.83,683.5 1933.5,683.5C 1933.5,629.5 1933.5,575.5 1933.5,521.5 Z"/></g>
<g><path style="opacity:0.979" fill="#fefffe" d="M 2071.5,521.5 C 2087.41,521.175 2103.24,521.509 2119,522.5C 2131.13,562.561 2143.46,602.561 2156,642.5C 2169.58,602.581 2183.08,562.581 2196.5,522.5C 2212.15,521.501 2227.82,521.167 2243.5,521.5C 2243.5,575.5 2243.5,629.5 2243.5,683.5C 2232.83,683.5 2222.17,683.5 2211.5,683.5C 2211.43,642.155 2211.59,600.821 2212,559.5C 2198.67,600.167 2185.33,640.833 2172,681.5C 2166.75,682.807 2161.25,683.474 2155.5,683.5C 2149.92,683.489 2144.42,683.156 2139,682.5C 2126.33,641.167 2113.67,599.833 2101,558.5C 2102.31,600.13 2102.81,641.797 2102.5,683.5C 2092.17,683.5 2081.83,683.5 2071.5,683.5C 2071.5,629.5 2071.5,575.5 2071.5,521.5 Z"/></g>
</svg>
